PathFileType	4	(X/Y/Z)	C:\Users\WrightLab\Desktop\Jo\P5V24.trc
DataRate	CameraRate	NumFrames	NumMarkers	Units	OrigDataRate	OrigDataStartFrame	OrigNumFrames
100.00	100.00	      17	19	mm	100.00	581	      1161
Frame#	Time	Headset_Front			Headset_Back			Headset_Left			Headset_Right			Left_Shoulder			Right_Shoulder			Sternum			C7			Left Elbow			Right Elbow			Left Wrist			Right Wrist			Left ASIS			Right ASIS			S2			Left Knee			Right Knee			Left Ankle			Right Ankle			
		X1	Y1	Z1	X2	Y2	Z2	X3	Y3	Z3	X4	Y4	Z4	X5	Y5	Z5	X6	Y6	Z6	X7	Y7	Z7	X8	Y8	Z8	X9	Y9	Z9	X10	Y10	Z10	X11	Y11	Z11	X12	Y12	Z12	X13	Y13	Z13	X14	Y14	Z14	X15	Y15	Z15	X16	Y16	Z16	X17	Y17	Z17	X18	Y18	Z18	X19	Y19	Z19	

581	5.800	-217.94908	1576.89636	-32.00087							-450.04913	1538.13586	-38.35207	-100.26550	1512.68201	-242.57018	-498.68799	1437.87073	-171.23083	-287.11890	1303.65857	-150.88142	-339.52530	1538.92578	-321.34836	-123.24284	1313.52905	-168.87804	-644.19403	1197.27881	-152.73804	-12.74437	1262.05151	-328.45526	-678.07214	1051.68738	51.55643	-132.88832	927.34491	-209.58740	-414.70419	928.08893	-148.70055	-284.04828	1003.17224	-451.02405	-96.42543	500.02527	-261.24335	-460.26886	496.09113	-205.71494	-89.06849	90.06746	-373.36566	-441.32819	92.71692	-276.83087	
582	5.810	-220.40201	1576.22363	-28.52059							-452.95596	1537.60083	-37.92086	-103.38091	1512.76160	-242.36324	-502.32452	1437.46521	-171.30531	-289.84625	1303.94885	-150.80301	-342.69876	1538.94617	-321.78448	-125.53336	1313.75232	-168.42578	-647.02081	1196.86145	-153.30110	-15.05742	1262.64221	-328.44839	-680.59088	1052.91309	50.17966	-134.93715	927.51904	-209.72760	-416.38574	927.94611	-146.91273	-286.61835	1003.04614	-450.18921	-98.40424	499.81534	-261.19165	-461.32828	495.08707	-205.16890	-89.05396	90.51565	-373.40134	-441.38373	92.66389	-276.84866	
583	5.820	-223.37260	1576.45679	-29.29795							-455.83145	1537.38318	-37.22790	-106.00018	1512.90845	-241.52098	-503.46616	1436.59717	-170.30322	-292.44318	1303.89380	-149.58072	-345.43594	1538.58752	-320.53687	-127.82952	1313.89429	-168.05693	-649.60345	1196.09827	-153.91423	-17.50641	1262.47998	-327.53284	-682.84082	1051.16516	50.12047	-136.99821	927.18640	-209.72165	-418.65582	928.04102	-147.23643	-288.63782	1002.91473	-449.64539	-99.58724	500.48651	-260.29968	-463.28326	495.49991	-203.61725	-89.13731	90.54874	-373.37949	-441.56189	92.34875	-276.57715	
584	5.830	-371.94092	1430.85583	22.81603							-459.00510	1536.91455	-37.16847	-108.54858	1513.68567	-241.35176	-507.25494	1436.22620	-169.38495	-294.77008	1303.19604	-150.42747	-347.99512	1538.73523	-320.49802	-130.84525	1314.28455	-167.59944	-651.49286	1195.56250	-154.30122	-20.14145	1263.38562	-327.67023	-684.83069	1051.35730	49.68004	-138.61034	927.16870	-208.84181	-420.18808	927.87421	-146.95023	-290.28943	1002.60986	-449.02298	-100.67959	501.24023	-259.28973	-464.61020	495.68890	-203.38618	-89.35210	90.77028	-373.42743	-441.58838	92.29820	-276.58694	
585	5.840	-229.41649	1576.62891	-28.99637							-461.18872	1536.73718	-36.48239	-111.54927	1513.83826	-241.41356	-508.34814	1435.34631	-168.86313	-297.29984	1303.70044	-149.98250	-350.72006	1538.73486	-320.21127	-133.69455	1313.85193	-167.16025	-653.70093	1194.63452	-154.22160	-22.44763	1263.21216	-326.25214	-686.61371	1050.73364	50.16957	-140.23853	927.50977	-208.73438	-422.13110	927.63757	-146.58611	-293.48633	1003.53278	-448.73917	-101.86076	500.82803	-259.11703	-466.18109	495.37045	-202.66647	-89.52850	91.07272	-373.55688	-442.03259	92.41752	-276.65387	
586	5.850	-231.91989	1576.86621	-30.34356							-464.21469	1536.88293	-35.99610	-113.66935	1513.92078	-240.40289	-511.72882	1435.02783	-168.83124	-299.45148	1303.92737	-148.70941	-353.55115	1538.66907	-319.58954	-135.16809	1314.18066	-166.69740	-655.72485	1193.71460	-153.38033	-24.13684	1263.60938	-325.66870	-689.58380	1050.73645	49.30773	-142.16994	927.66345	-208.31430	-424.42346	927.54041	-145.19984	-295.30139	1003.49200	-448.12357	-102.42774	501.03262	-258.43552	-466.94214	495.24948	-201.39322	-89.57415	91.09497	-373.54303	-442.22183	92.20550	-276.66003	
587	5.860	-379.25427	1430.40039	23.74940							-466.34003	1536.36292	-35.58884	-116.62437	1513.83826	-240.77383	-514.11493	1434.51978	-168.53226	-301.84787	1303.33203	-148.92540	-355.71912	1538.32837	-318.34030	-138.39668	1314.24939	-166.27203	-656.97949	1192.09802	-153.22978	-26.84539	1263.39270	-325.35815	-691.19562	1050.31702	49.12641	-144.39558	927.83020	-207.93977	-425.55533	927.39667	-144.79463	-297.39499	1003.13690	-447.68903	-103.26715	501.07181	-257.63293	-468.35440	494.94211	-201.14581	-89.63264	91.10636	-373.53320	-442.66296	92.34593	-276.70407	
588	5.870	-381.17392	1430.15649	24.46951							-469.06580	1536.53577	-35.24495	-118.93676	1513.98242	-239.81689	-516.16656	1434.45325	-168.21049	-303.68863	1302.61755	-149.70639	-357.85062	1538.14063	-317.85312	-139.44685	1314.71704	-166.79321	-658.99261	1191.63879	-153.53017	-28.48265	1263.71448	-326.06085	-692.96997	1049.46753	48.49146	-145.75618	927.85376	-207.50867	-427.47601	927.06390	-146.00945	-299.59897	1002.83881	-446.45895	-103.82339	500.93112	-257.13782	-470.57379	495.23666	-200.83980	-89.82873	91.31822	-373.44574	-442.86630	92.13214	-276.90341	
589	5.880	-239.29950	1576.58154	-26.90605							-471.11563	1535.47949	-34.08341	-121.30629	1514.20239	-240.13722	-519.72662	1433.90466	-168.19516	-305.90543	1302.87866	-149.05011	-360.62164	1537.99609	-318.44467	-142.33635	1314.61670	-165.98828	-661.17963	1190.42273	-153.12193	-30.60983	1264.55579	-325.76059	-694.21552	1047.04663	49.94207	-147.85162	928.11835	-207.58000	-429.19522	926.44739	-143.14514	-301.44736	1002.83844	-446.15536	-105.00237	500.90817	-255.71776	-471.10858	495.22308	-199.60858	-90.08863	91.37614	-373.08432	-442.91534	92.05301	-276.95093	
590	5.890	-241.87114	1576.73145	-26.98771							-473.93188	1535.54785	-34.28937	-123.46686	1514.22778	-239.66687	-519.78186	1433.33911	-167.27887	-307.71368	1302.70007	-148.46635	-363.26382	1537.90369	-317.94370	-143.98708	1314.60352	-165.49057	-663.15430	1190.88330	-154.35843	-32.17559	1264.50452	-325.61786	-695.05664	1046.21313	50.23427	-149.48965	927.83240	-207.27269	-429.76111	926.25354	-142.84521	-304.01285	1002.80066	-446.06723	-106.23970	500.88687	-254.93542	-473.10416	494.97189	-199.05132	-90.13142	91.64990	-372.88074	-442.95642	91.96010	-276.99237	
591	5.900	-387.96707	1430.27502	26.17408							-476.85269	1534.97583	-34.20761	-125.59841	1514.35107	-239.06320	-523.94379	1432.88611	-167.87065	-309.56784	1302.67908	-147.53590	-365.01016	1537.51489	-317.49438	-145.97035	1314.63745	-164.78548	-665.01459	1189.88269	-154.64325	-35.24660	1264.42981	-324.02780	-696.51257	1045.34961	50.15340	-150.65456	927.81683	-207.78233	-432.88235	926.46478	-142.96278	-306.41141	1003.12146	-444.98901	-106.85004	500.96613	-253.51979	-474.05542	494.98203	-198.89964	-90.15138	91.69617	-372.85770	-442.98734	91.93282	-277.01437	
592	5.910	-246.06317	1575.98535	-25.50166							-478.27524	1534.96973	-33.44135	-127.69356	1514.41357	-238.81595	-524.98383	1432.19177	-166.95877	-311.64090	1302.21643	-148.24005	-367.12100	1537.25476	-316.87445	-148.24672	1314.61218	-164.61531	-666.47009	1188.92896	-154.42439	-37.16483	1264.59692	-322.81155	-698.24176	1045.36377	50.19371	-152.90535	927.79309	-207.04765	-434.76279	926.14996	-141.18506	-307.92252	1002.95502	-444.48218	-107.38763	500.82288	-252.79904	-475.29633	495.22424	-196.95171	-90.27626	91.85152	-372.60989	-442.99194	91.87628	-277.04373	
593	5.920	-248.17265	1575.64478	-24.68801							-480.12827	1534.63782	-33.08384	-129.42621	1514.19373	-238.45113	-527.05255	1431.32190	-167.14999	-313.41708	1302.22083	-148.11049	-369.69785	1537.29492	-317.16251	-149.99135	1314.48828	-164.10228	-667.99207	1187.75574	-153.43736	-38.53188	1265.08411	-323.31915	-699.97662	1044.69141	50.52821	-154.10773	927.73016	-206.74429	-436.06818	925.86591	-141.12601	-309.83606	1002.23633	-443.37238	-108.33353	500.91241	-252.19061	-476.37457	494.55069	-196.75247	-90.31517	91.87677	-372.59515	-442.99655	91.86142	-277.05469	
594	5.930	-394.05530	1429.12891	26.81809							-481.86380	1534.24365	-32.81382	-132.36629	1514.32629	-238.30490	-529.54834	1431.34875	-166.83536	-315.23059	1301.97449	-147.51819	-371.87292	1536.86719	-317.17429	-151.77068	1314.39514	-163.86662	-669.47241	1187.25732	-152.82791	-39.99948	1264.83228	-323.51883	-701.23175	1044.17432	50.49255	-155.27220	927.82568	-206.89041	-437.29349	925.33081	-141.43419	-311.89862	1002.23480	-442.92673	-108.84223	500.65018	-250.75867	-477.80920	494.18033	-196.79091	-90.66154	92.21019	-372.64917	-442.99570	91.82443	-277.06134	
595	5.940	-252.69580	1575.46851	-25.47551							-484.10184	1533.71423	-32.18420	-134.09727	1514.27380	-238.05643	-530.62354	1430.63135	-166.24397	-316.75482	1301.48413	-147.02187	-373.71191	1536.51270	-316.33136	-153.19984	1314.20618	-164.51982	-670.96448	1186.62524	-153.01018	-42.57076	1264.54419	-322.05020	-702.35486	1044.99365	49.99638	-157.63449	927.46503	-206.90480	-439.37997	925.35217	-141.09839	-313.25513	1002.51007	-443.12473	-109.51947	501.16519	-249.74875	-479.19894	494.04510	-196.48718	-90.72189	92.21341	-372.64301	-443.03226	91.80943	-277.07126	
596	5.950	-397.53354	1429.07031	28.75789							-485.77115	1533.41443	-31.68665	-135.90045	1514.43774	-237.43802	-533.09747	1430.15637	-166.62256	-318.52527	1301.50964	-146.89989	-375.62906	1536.26074	-315.78476	-154.68323	1315.26343	-163.67877	-672.62927	1185.97510	-153.25864	-43.97437	1265.27368	-323.19742	-704.07190	1044.36707	50.16959	-159.02815	927.53918	-206.85033	-440.23169	924.77386	-140.08890	-315.50906	1002.59131	-442.83038	-109.66747	501.19263	-247.89597	-480.92606	494.11349	-195.30275	-90.75830	92.24506	-372.62549	-443.23624	91.53125	-277.19089	
597	5.960	-256.72656	1575.12451	-26.47850							-487.86490	1533.32202	-31.82491	-138.32527	1514.03760	-237.14548	-535.57269	1429.81348	-165.88737	-320.66824	1301.22937	-147.45805	-378.03659	1536.27856	-316.23950	-157.05782	1314.94397	-163.38574	-673.94324	1185.59949	-153.60518	-45.41156	1265.82214	-322.99991	-705.14160	1043.91565	50.56879	-160.43967	927.36395	-206.47380	-440.90543	924.27582	-140.05141	-317.34311	1002.26172	-442.04208	-110.98921	500.96991	-247.24608	-481.94211	494.47412	-195.06300	-90.66280	92.38713	-372.55295	-443.28824	91.53564	-277.21423	
